<mxfile host="app.diagrams.net" modified="2024-03-27T02:09:11.997Z" agent="Mozilla/5.0 (Windows NT 10.0; Win64; x64) AppleWebKit/537.36 (KHTML, like Gecko) Chrome/123.0.0.0 Safari/537.36 Edg/123.0.0.0" etag="O689_n_wofVOpzjcBgx9" version="24.1.0" type="device">
  <diagram name="페이지-1" id="hffJcWGc49ebOBZPTyQl">
    <mxGraphModel dx="1002" dy="569" grid="1" gridSize="10" guides="1" tooltips="1" connect="1" arrows="1" fold="1" page="1" pageScale="1" pageWidth="827" pageHeight="1169" math="0" shadow="0">
      <root>
        <mxCell id="0" />
        <mxCell id="1" parent="0" />
        <mxCell id="rOhGgh2oIb9q_Z6LjkFa-3" value="&lt;p style=&quot;margin:0px;margin-top:4px;text-align:center;&quot;&gt;&lt;b&gt;Player&lt;/b&gt;&lt;/p&gt;&lt;hr size=&quot;1&quot; style=&quot;border-style:solid;&quot;&gt;&lt;p style=&quot;margin:0px;margin-left:4px;&quot;&gt;- sword : int&lt;br&gt;- potion : int&lt;/p&gt;&lt;hr size=&quot;1&quot; style=&quot;border-style:solid;&quot;&gt;&lt;p style=&quot;margin:0px;margin-left:4px;&quot;&gt;- attackBoss(Unit) : void&lt;/p&gt;&lt;p style=&quot;margin:0px;margin-left:4px;&quot;&gt;- attackZombie(Unit) : void&lt;/p&gt;&lt;p style=&quot;margin:0px;margin-left:4px;&quot;&gt;+ recovery() : void&lt;/p&gt;" style="verticalAlign=top;align=left;overflow=fill;html=1;whiteSpace=wrap;" vertex="1" parent="1">
          <mxGeometry x="124" y="290" width="210" height="140" as="geometry" />
        </mxCell>
        <mxCell id="rOhGgh2oIb9q_Z6LjkFa-4" value="&lt;p style=&quot;margin:0px;margin-top:4px;text-align:center;&quot;&gt;&lt;b&gt;Unit&lt;/b&gt;&lt;/p&gt;&lt;hr size=&quot;1&quot; style=&quot;border-style:solid;&quot;&gt;&lt;p style=&quot;margin:0px;margin-left:4px;&quot;&gt;+ MAX_HP : int&lt;/p&gt;&lt;p style=&quot;margin:0px;margin-left:4px;&quot;&gt;- position : int&lt;/p&gt;&lt;p style=&quot;margin:0px;margin-left:4px;&quot;&gt;- hp : int&lt;br&gt;+ attackMax : int&lt;/p&gt;&lt;hr size=&quot;1&quot; style=&quot;border-style:solid;&quot;&gt;&lt;p style=&quot;margin:0px;margin-left:4px;&quot;&gt;+ getPosition() : int&lt;br&gt;+ setPosition() : void&lt;/p&gt;&lt;p style=&quot;margin:0px;margin-left:4px;&quot;&gt;+ getHp() : int&lt;br&gt;+ setHp() : void&lt;br&gt;+ getAttackMax() : int&lt;br&gt;+ attack(Unit) : abstract void&lt;/p&gt;" style="verticalAlign=top;align=left;overflow=fill;html=1;whiteSpace=wrap;" vertex="1" parent="1">
          <mxGeometry x="334" y="10" width="160" height="190" as="geometry" />
        </mxCell>
        <mxCell id="rOhGgh2oIb9q_Z6LjkFa-5" value="&lt;p style=&quot;margin:0px;margin-top:4px;text-align:center;&quot;&gt;&lt;b&gt;Zombie&lt;/b&gt;&lt;/p&gt;&lt;hr size=&quot;1&quot; style=&quot;border-style:solid;&quot;&gt;&lt;p style=&quot;margin:0px;margin-left:4px;&quot;&gt;- bite : int&lt;/p&gt;&lt;hr size=&quot;1&quot; style=&quot;border-style:solid;&quot;&gt;&lt;p style=&quot;margin:0px;margin-left:4px;&quot;&gt;&lt;br&gt;&lt;/p&gt;" style="verticalAlign=top;align=left;overflow=fill;html=1;whiteSpace=wrap;" vertex="1" parent="1">
          <mxGeometry x="494" y="290" width="210" height="140" as="geometry" />
        </mxCell>
        <mxCell id="rOhGgh2oIb9q_Z6LjkFa-7" value="Extends" style="endArrow=block;endSize=16;endFill=0;html=1;rounded=0;entryX=0.5;entryY=1;entryDx=0;entryDy=0;exitX=0.502;exitY=0.45;exitDx=0;exitDy=0;exitPerimeter=0;" edge="1" parent="1" source="rOhGgh2oIb9q_Z6LjkFa-8" target="rOhGgh2oIb9q_Z6LjkFa-4">
          <mxGeometry width="160" relative="1" as="geometry">
            <mxPoint x="414" y="260" as="sourcePoint" />
            <mxPoint x="494" y="230" as="targetPoint" />
          </mxGeometry>
        </mxCell>
        <mxCell id="rOhGgh2oIb9q_Z6LjkFa-8" value="" style="line;strokeWidth=1;fillColor=none;align=left;verticalAlign=middle;spacingTop=-1;spacingLeft=3;spacingRight=3;rotatable=0;labelPosition=right;points=[];portConstraint=eastwest;strokeColor=inherit;" vertex="1" parent="1">
          <mxGeometry x="234" y="260" width="360" height="8" as="geometry" />
        </mxCell>
        <mxCell id="rOhGgh2oIb9q_Z6LjkFa-14" value="" style="endArrow=none;html=1;rounded=0;" edge="1" parent="1">
          <mxGeometry width="50" height="50" relative="1" as="geometry">
            <mxPoint x="234" y="264" as="sourcePoint" />
            <mxPoint x="234" y="290" as="targetPoint" />
          </mxGeometry>
        </mxCell>
        <mxCell id="rOhGgh2oIb9q_Z6LjkFa-18" value="" style="endArrow=none;html=1;rounded=0;exitX=1.001;exitY=0.55;exitDx=0;exitDy=0;exitPerimeter=0;" edge="1" parent="1" source="rOhGgh2oIb9q_Z6LjkFa-8">
          <mxGeometry width="50" height="50" relative="1" as="geometry">
            <mxPoint x="594" y="270" as="sourcePoint" />
            <mxPoint x="594" y="290" as="targetPoint" />
          </mxGeometry>
        </mxCell>
        <mxCell id="rOhGgh2oIb9q_Z6LjkFa-19" value="Extends" style="endArrow=block;endSize=16;endFill=0;html=1;rounded=0;" edge="1" parent="1">
          <mxGeometry width="160" relative="1" as="geometry">
            <mxPoint x="598.5" y="520" as="sourcePoint" />
            <mxPoint x="598.5" y="430" as="targetPoint" />
          </mxGeometry>
        </mxCell>
        <mxCell id="rOhGgh2oIb9q_Z6LjkFa-20" value="&lt;p style=&quot;margin:0px;margin-top:4px;text-align:center;&quot;&gt;&lt;b&gt;Boss&lt;/b&gt;&lt;/p&gt;&lt;hr size=&quot;1&quot; style=&quot;border-style:solid;&quot;&gt;&lt;p style=&quot;margin:0px;margin-left:4px;&quot;&gt;- shield : int&lt;/p&gt;&lt;hr size=&quot;1&quot; style=&quot;border-style:solid;&quot;&gt;&lt;p style=&quot;margin:0px;margin-left:4px;&quot;&gt;+ getShield() : int&lt;br&gt;+ setShield() : void&lt;br&gt;&lt;br&gt;- ultimate(Unit) : void&lt;br&gt;- generalAttack(Unit) : void&lt;/p&gt;" style="verticalAlign=top;align=left;overflow=fill;html=1;whiteSpace=wrap;" vertex="1" parent="1">
          <mxGeometry x="494" y="520" width="210" height="140" as="geometry" />
        </mxCell>
      </root>
    </mxGraphModel>
  </diagram>
</mxfile>
